<?xml version="1.0" encoding="UTF-8" standalone="no"?>
<!DOCTYPE svg PUBLIC "-//W3C//DTD SVG 1.1//EN"
 "http://www.w3.org/Graphics/SVG/1.1/DTD/svg11.dtd">
<!-- Generated by graphviz version 5.0.0 (20220707.1540)
 -->
<!-- Title: dependencies Pages: 1 -->
<svg width="1007pt" height="247pt"
 viewBox="0.00 0.00 1007.00 246.80" xmlns="http://www.w3.org/2000/svg" xmlns:xlink="http://www.w3.org/1999/xlink">
<g id="graph0" class="graph" transform="scale(1 1) rotate(0) translate(4 242.8)">
<title>dependencies</title>
<polygon fill="white" stroke="transparent" points="-4,4 -4,-242.8 1003,-242.8 1003,4 -4,4"/>
<text text-anchor="middle" x="499.5" y="-8.2" font-family="sans-serif" font-size="14.00">dependencies</text>
<g id="clust1" class="cluster">
<title>cluster_AppModule</title>
<polygon fill="none" stroke="black" stroke-dasharray="1,5" points="8,-32.8 8,-230.8 991,-230.8 991,-32.8 8,-32.8"/>
</g>
<g id="clust2" class="cluster">
<title>cluster_AppModule_declarations</title>
<polygon fill="none" stroke="black" points="168,-40.8 168,-92.8 983,-92.8 983,-40.8 168,-40.8"/>
</g>
<g id="clust9" class="cluster">
<title>cluster_AppModule_imports</title>
<polygon fill="none" stroke="black" points="16,-40.8 16,-92.8 160,-92.8 160,-40.8 16,-40.8"/>
</g>
<g id="clust11" class="cluster">
<title>cluster_AppModule_bootstrap</title>
<polygon fill="none" stroke="black" points="445,-170.8 445,-222.8 569,-222.8 569,-170.8 445,-170.8"/>
</g>
<!-- AppComponent -->
<g id="node1" class="node">
<title>AppComponent</title>
<polygon fill="#ffffb3" stroke="black" points="974.94,-84.8 869.06,-84.8 869.06,-48.8 974.94,-48.8 974.94,-84.8"/>
<text text-anchor="middle" x="922" y="-62.6" font-family="Times,serif" font-size="14.00">AppComponent</text>
</g>
<!-- AppModule -->
<g id="node7" class="node">
<title>AppModule</title>
<polygon fill="#8dd3c7" stroke="black" points="548.66,-149.8 545.66,-153.8 524.66,-153.8 521.66,-149.8 465.34,-149.8 465.34,-113.8 548.66,-113.8 548.66,-149.8"/>
<text text-anchor="middle" x="507" y="-127.6" font-family="Times,serif" font-size="14.00">AppModule</text>
</g>
<!-- AppComponent&#45;&gt;AppModule -->
<g id="edge1" class="edge">
<title>AppComponent&#45;&gt;AppModule</title>
<path fill="none" stroke="black" d="M922,-85.09C922,-107.01 922,-140.8 922,-140.8 922,-140.8 558.69,-140.8 558.69,-140.8"/>
<polygon fill="black" stroke="black" points="558.69,-137.3 548.69,-140.8 558.69,-144.3 558.69,-137.3"/>
</g>
<!-- CadastrarComponent -->
<g id="node2" class="node">
<title>CadastrarComponent</title>
<polygon fill="#ffffb3" stroke="black" points="851.47,-84.8 716.53,-84.8 716.53,-48.8 851.47,-48.8 851.47,-84.8"/>
<text text-anchor="middle" x="784" y="-62.6" font-family="Times,serif" font-size="14.00">CadastrarComponent</text>
</g>
<!-- CadastrarComponent&#45;&gt;AppModule -->
<g id="edge2" class="edge">
<title>CadastrarComponent&#45;&gt;AppModule</title>
<path fill="none" stroke="black" d="M784,-84.91C784,-104.14 784,-131.8 784,-131.8 784,-131.8 558.77,-131.8 558.77,-131.8"/>
<polygon fill="black" stroke="black" points="558.77,-128.3 548.77,-131.8 558.77,-135.3 558.77,-128.3"/>
</g>
<!-- EntrarComponent -->
<g id="node3" class="node">
<title>EntrarComponent</title>
<polygon fill="#ffffb3" stroke="black" points="698.31,-84.8 581.69,-84.8 581.69,-48.8 698.31,-48.8 698.31,-84.8"/>
<text text-anchor="middle" x="640" y="-62.6" font-family="Times,serif" font-size="14.00">EntrarComponent</text>
</g>
<!-- EntrarComponent&#45;&gt;AppModule -->
<g id="edge3" class="edge">
<title>EntrarComponent&#45;&gt;AppModule</title>
<path fill="none" stroke="black" d="M640,-84.83C640,-101.2 640,-122.8 640,-122.8 640,-122.8 558.72,-122.8 558.72,-122.8"/>
<polygon fill="black" stroke="black" points="558.72,-119.3 548.72,-122.8 558.72,-126.3 558.72,-119.3"/>
</g>
<!-- InicioComponent -->
<g id="node4" class="node">
<title>InicioComponent</title>
<polygon fill="#ffffb3" stroke="black" points="563.99,-84.8 450.01,-84.8 450.01,-48.8 563.99,-48.8 563.99,-84.8"/>
<text text-anchor="middle" x="507" y="-62.6" font-family="Times,serif" font-size="14.00">InicioComponent</text>
</g>
<!-- InicioComponent&#45;&gt;AppModule -->
<g id="edge4" class="edge">
<title>InicioComponent&#45;&gt;AppModule</title>
<path fill="none" stroke="black" d="M507,-84.91C507,-84.91 507,-103.79 507,-103.79"/>
<polygon fill="black" stroke="black" points="503.5,-103.79 507,-113.79 510.5,-103.79 503.5,-103.79"/>
</g>
<!-- MenuComponent -->
<g id="node5" class="node">
<title>MenuComponent</title>
<polygon fill="#ffffb3" stroke="black" points="431.99,-84.8 318.01,-84.8 318.01,-48.8 431.99,-48.8 431.99,-84.8"/>
<text text-anchor="middle" x="375" y="-62.6" font-family="Times,serif" font-size="14.00">MenuComponent</text>
</g>
<!-- MenuComponent&#45;&gt;AppModule -->
<g id="edge5" class="edge">
<title>MenuComponent&#45;&gt;AppModule</title>
<path fill="none" stroke="black" d="M375,-84.83C375,-101.2 375,-122.8 375,-122.8 375,-122.8 455.23,-122.8 455.23,-122.8"/>
<polygon fill="black" stroke="black" points="455.23,-126.3 465.23,-122.8 455.23,-119.3 455.23,-126.3"/>
</g>
<!-- RodapeComponent -->
<g id="node6" class="node">
<title>RodapeComponent</title>
<polygon fill="#ffffb3" stroke="black" points="300.1,-84.8 175.9,-84.8 175.9,-48.8 300.1,-48.8 300.1,-84.8"/>
<text text-anchor="middle" x="238" y="-62.6" font-family="Times,serif" font-size="14.00">RodapeComponent</text>
</g>
<!-- RodapeComponent&#45;&gt;AppModule -->
<g id="edge6" class="edge">
<title>RodapeComponent&#45;&gt;AppModule</title>
<path fill="none" stroke="black" d="M238,-84.91C238,-104.14 238,-131.8 238,-131.8 238,-131.8 455.26,-131.8 455.26,-131.8"/>
<polygon fill="black" stroke="black" points="455.26,-135.3 465.26,-131.8 455.26,-128.3 455.26,-135.3"/>
</g>
<!-- AppComponent  -->
<g id="node9" class="node">
<title>AppComponent </title>
<polygon fill="#80b1d3" stroke="black" points="561.44,-214.8 452.56,-214.8 452.56,-178.8 561.44,-178.8 561.44,-214.8"/>
<text text-anchor="middle" x="507" y="-192.6" font-family="Times,serif" font-size="14.00">AppComponent </text>
</g>
<!-- AppModule&#45;&gt;AppComponent  -->
<g id="edge8" class="edge">
<title>AppModule&#45;&gt;AppComponent </title>
<path fill="none" stroke="black" stroke-dasharray="1,5" d="M507,-149.91C507,-149.91 507,-168.79 507,-168.79"/>
<polygon fill="black" stroke="black" points="503.5,-168.79 507,-178.79 510.5,-168.79 503.5,-168.79"/>
</g>
<!-- AppRoutingModule -->
<g id="node8" class="node">
<title>AppRoutingModule</title>
<polygon fill="#8dd3c7" stroke="black" points="152.28,-84.8 149.28,-88.8 128.28,-88.8 125.28,-84.8 23.72,-84.8 23.72,-48.8 152.28,-48.8 152.28,-84.8"/>
<text text-anchor="middle" x="88" y="-62.6" font-family="Times,serif" font-size="14.00">AppRoutingModule</text>
</g>
<!-- AppRoutingModule&#45;&gt;AppModule -->
<g id="edge7" class="edge">
<title>AppRoutingModule&#45;&gt;AppModule</title>
<path fill="none" stroke="black" d="M88,-85.09C88,-107.01 88,-140.8 88,-140.8 88,-140.8 455.29,-140.8 455.29,-140.8"/>
<polygon fill="black" stroke="black" points="455.29,-144.3 465.29,-140.8 455.29,-137.3 455.29,-144.3"/>
</g>
</g>
</svg>
