<?xml version="1.0" encoding="UTF-8" standalone="no"?>
<!DOCTYPE svg PUBLIC "-//W3C//DTD SVG 1.1//EN"
 "http://www.w3.org/Graphics/SVG/1.1/DTD/svg11.dtd">
<!-- Generated by graphviz version 5.0.0 (20220707.1540)
 -->
<!-- Title: dependencies Pages: 1 -->
<svg width="1007pt" height="247pt"
 viewBox="0.00 0.00 1007.00 246.80" xmlns="http://www.w3.org/2000/svg" xmlns:xlink="http://www.w3.org/1999/xlink">
<g id="graph0" class="graph" transform="scale(1 1) rotate(0) translate(4 242.8)">
<title>dependencies</title>
<polygon fill="white" stroke="transparent" points="-4,4 -4,-242.8 1003,-242.8 1003,4 -4,4"/>
<text text-anchor="middle" x="499.5" y="-8.2" font-family="sans-serif" font-size="14.00">dependencies</text>
<g id="clust1" class="cluster">
<title>cluster_AppModule</title>
<polygon fill="none" stroke="black" stroke-dasharray="1,5" points="8,-32.8 8,-230.8 991,-230.8 991,-32.8 8,-32.8"/>
</g>
<g id="clust11" class="cluster">
<title>cluster_AppModule_bootstrap</title>
<polygon fill="none" stroke="black" points="426,-170.8 426,-222.8 550,-222.8 550,-170.8 426,-170.8"/>
</g>
<g id="clust9" class="cluster">
<title>cluster_AppModule_imports</title>
<polygon fill="none" stroke="black" points="839,-40.8 839,-92.8 983,-92.8 983,-40.8 839,-40.8"/>
</g>
<g id="clust2" class="cluster">
<title>cluster_AppModule_declarations</title>
<polygon fill="none" stroke="black" points="16,-40.8 16,-92.8 831,-92.8 831,-40.8 16,-40.8"/>
</g>
<!-- AppComponent -->
<g id="node1" class="node">
<title>AppComponent</title>
<polygon fill="#ffffb3" stroke="black" points="822.94,-84.8 717.06,-84.8 717.06,-48.8 822.94,-48.8 822.94,-84.8"/>
<text text-anchor="middle" x="770" y="-62.6" font-family="Times,serif" font-size="14.00">AppComponent</text>
</g>
<!-- AppModule -->
<g id="node7" class="node">
<title>AppModule</title>
<polygon fill="#8dd3c7" stroke="black" points="529.66,-149.8 526.66,-153.8 505.66,-153.8 502.66,-149.8 446.34,-149.8 446.34,-113.8 529.66,-113.8 529.66,-149.8"/>
<text text-anchor="middle" x="488" y="-127.6" font-family="Times,serif" font-size="14.00">AppModule</text>
</g>
<!-- AppComponent&#45;&gt;AppModule -->
<g id="edge1" class="edge">
<title>AppComponent&#45;&gt;AppModule</title>
<path fill="none" stroke="black" d="M770,-84.91C770,-104.14 770,-131.8 770,-131.8 770,-131.8 539.91,-131.8 539.91,-131.8"/>
<polygon fill="black" stroke="black" points="539.91,-128.3 529.91,-131.8 539.91,-135.3 539.91,-128.3"/>
</g>
<!-- CadastrarComponent -->
<g id="node2" class="node">
<title>CadastrarComponent</title>
<polygon fill="#ffffb3" stroke="black" points="699.47,-84.8 564.53,-84.8 564.53,-48.8 699.47,-48.8 699.47,-84.8"/>
<text text-anchor="middle" x="632" y="-62.6" font-family="Times,serif" font-size="14.00">CadastrarComponent</text>
</g>
<!-- CadastrarComponent&#45;&gt;AppModule -->
<g id="edge2" class="edge">
<title>CadastrarComponent&#45;&gt;AppModule</title>
<path fill="none" stroke="black" d="M632,-84.83C632,-101.2 632,-122.8 632,-122.8 632,-122.8 540.04,-122.8 540.04,-122.8"/>
<polygon fill="black" stroke="black" points="540.04,-119.3 530.04,-122.8 540.04,-126.3 540.04,-119.3"/>
</g>
<!-- EntrarComponent -->
<g id="node3" class="node">
<title>EntrarComponent</title>
<polygon fill="#ffffb3" stroke="black" points="546.31,-84.8 429.69,-84.8 429.69,-48.8 546.31,-48.8 546.31,-84.8"/>
<text text-anchor="middle" x="488" y="-62.6" font-family="Times,serif" font-size="14.00">EntrarComponent</text>
</g>
<!-- EntrarComponent&#45;&gt;AppModule -->
<g id="edge3" class="edge">
<title>EntrarComponent&#45;&gt;AppModule</title>
<path fill="none" stroke="black" d="M488,-84.91C488,-84.91 488,-103.79 488,-103.79"/>
<polygon fill="black" stroke="black" points="484.5,-103.79 488,-113.79 491.5,-103.79 484.5,-103.79"/>
</g>
<!-- InicioComponent -->
<g id="node4" class="node">
<title>InicioComponent</title>
<polygon fill="#ffffb3" stroke="black" points="411.99,-84.8 298.01,-84.8 298.01,-48.8 411.99,-48.8 411.99,-84.8"/>
<text text-anchor="middle" x="355" y="-62.6" font-family="Times,serif" font-size="14.00">InicioComponent</text>
</g>
<!-- InicioComponent&#45;&gt;AppModule -->
<g id="edge4" class="edge">
<title>InicioComponent&#45;&gt;AppModule</title>
<path fill="none" stroke="black" d="M355,-84.83C355,-101.2 355,-122.8 355,-122.8 355,-122.8 436.28,-122.8 436.28,-122.8"/>
<polygon fill="black" stroke="black" points="436.28,-126.3 446.28,-122.8 436.28,-119.3 436.28,-126.3"/>
</g>
<!-- MenuComponent -->
<g id="node5" class="node">
<title>MenuComponent</title>
<polygon fill="#ffffb3" stroke="black" points="279.99,-84.8 166.01,-84.8 166.01,-48.8 279.99,-48.8 279.99,-84.8"/>
<text text-anchor="middle" x="223" y="-62.6" font-family="Times,serif" font-size="14.00">MenuComponent</text>
</g>
<!-- MenuComponent&#45;&gt;AppModule -->
<g id="edge5" class="edge">
<title>MenuComponent&#45;&gt;AppModule</title>
<path fill="none" stroke="black" d="M223,-84.91C223,-104.14 223,-131.8 223,-131.8 223,-131.8 436.3,-131.8 436.3,-131.8"/>
<polygon fill="black" stroke="black" points="436.3,-135.3 446.3,-131.8 436.3,-128.3 436.3,-135.3"/>
</g>
<!-- RodapeComponent -->
<g id="node6" class="node">
<title>RodapeComponent</title>
<polygon fill="#ffffb3" stroke="black" points="148.1,-84.8 23.9,-84.8 23.9,-48.8 148.1,-48.8 148.1,-84.8"/>
<text text-anchor="middle" x="86" y="-62.6" font-family="Times,serif" font-size="14.00">RodapeComponent</text>
</g>
<!-- RodapeComponent&#45;&gt;AppModule -->
<g id="edge6" class="edge">
<title>RodapeComponent&#45;&gt;AppModule</title>
<path fill="none" stroke="black" d="M86,-85.09C86,-107.01 86,-140.8 86,-140.8 86,-140.8 436.12,-140.8 436.12,-140.8"/>
<polygon fill="black" stroke="black" points="436.12,-144.3 446.12,-140.8 436.12,-137.3 436.12,-144.3"/>
</g>
<!-- AppComponent  -->
<g id="node9" class="node">
<title>AppComponent </title>
<polygon fill="#80b1d3" stroke="black" points="542.44,-214.8 433.56,-214.8 433.56,-178.8 542.44,-178.8 542.44,-214.8"/>
<text text-anchor="middle" x="488" y="-192.6" font-family="Times,serif" font-size="14.00">AppComponent </text>
</g>
<!-- AppModule&#45;&gt;AppComponent  -->
<g id="edge8" class="edge">
<title>AppModule&#45;&gt;AppComponent </title>
<path fill="none" stroke="black" stroke-dasharray="1,5" d="M488,-149.91C488,-149.91 488,-168.79 488,-168.79"/>
<polygon fill="black" stroke="black" points="484.5,-168.79 488,-178.79 491.5,-168.79 484.5,-168.79"/>
</g>
<!-- AppRoutingModule -->
<g id="node8" class="node">
<title>AppRoutingModule</title>
<polygon fill="#8dd3c7" stroke="black" points="975.28,-84.8 972.28,-88.8 951.28,-88.8 948.28,-84.8 846.72,-84.8 846.72,-48.8 975.28,-48.8 975.28,-84.8"/>
<text text-anchor="middle" x="911" y="-62.6" font-family="Times,serif" font-size="14.00">AppRoutingModule</text>
</g>
<!-- AppRoutingModule&#45;&gt;AppModule -->
<g id="edge7" class="edge">
<title>AppRoutingModule&#45;&gt;AppModule</title>
<path fill="none" stroke="black" d="M911,-85.09C911,-107.01 911,-140.8 911,-140.8 911,-140.8 539.72,-140.8 539.72,-140.8"/>
<polygon fill="black" stroke="black" points="539.72,-137.3 529.72,-140.8 539.72,-144.3 539.72,-137.3"/>
</g>
</g>
</svg>
